<svg width="64" height="64" viewBox="0 0 64 64" fill="none" xmlns="http://www.w3.org/2000/svg">
  <path d="M8 56h48M32 8v48M32 8l-8 4v4l8-4M32 8l8 4v4l-8-4" stroke="#f59e0b" stroke-width="2" stroke-linecap="round" stroke-linejoin="round"/>
  <rect x="28" y="16" width="8" height="6" fill="#f59e0b"/>
  <path d="M32 22v-6M16 22h32M16 22l-4 4v4l4-4M48 22l4 4v4l-4-4" stroke="#f59e0b" stroke-width="2" stroke-linecap="round" stroke-linejoin="round"/>
  <rect x="38" y="26" width="6" height="8" fill="#d97706"/>
  <path d="M41 34v8M41 42l-6 4M41 42l6 4" stroke="#d97706" stroke-width="2" stroke-linecap="round" stroke-linejoin="round"/>
</svg>
